# xmcd CD database file
# Copyright (C) 1993-1996 Ti Kan
#
# Track frame offsets:
#  150
#  14660
#  27614
#  36944
#  49658
#  65691
#  80676
#  99180
#  110607
#  126884
#  136899
#  148911
#  159268
#  173270
#  183044
#  194188
#  206802
#  217846
#  230901
#  243466
#  256350
#  268032
#  282989
#  304521
#  315668
#
# Disc length: 4370 seconds
#
# Revision: 2
# Processed by: cddbd v1.5.1PL2 Copyright (c) Steve Scherf et al.
# Submitted via: Advanced CD Ripper Pro 2.0
#
DISCID=74111019
DTITLE=Various Artist - 50 Country Golden Hits Vol.1 CD 1
DYEAR=2006
DGENRE=Country
TTITLE0=The Bellamy Brothers - If I Said You Had A Beautiful Body
TTITLE1=Lynn Anderson - Rose Garden
TTITLE2=Frankie Laine - Rawhide
TTITLE3=Tex Ritter - High Noon
TTITLE4=Kenny Rogers - Tulsa Turnaround
TTITLE5=The Bellamy Brothers - Lovers Live Longer
TTITLE6=Carmen and The Thompson - The Sun Goes Down
TTITLE7=Wand Jackson - In The Middle Of A Heartache
TTITLE8=Lynn Anderson - The Devil Went Down To Georgia
TTITLE9=Johnny Cash - Rock Island Line
TTITLE10=Justin Tubb - Lodi
TTITLE11=Jimmie Rodgers - Oh-Oh I'm Falling In Love Again
TTITLE12=Willie Nelson - Home Is Where You're Happy
TTITLE13=Conway Twitty - Ever Since You Went Away
TTITLE14=Faron Young - Cryin' Time
TTITLE15=Mac Davis - Standing In The Need Of Love
TTITLE16=Waylon Jennings - Dream Baby
TTITLE17=Don Williams - Where Do We Go From Here
TTITLE18=Willi Nelson - Shelter Of Your Arms
TTITLE19=Johnny Cash - Folsom Prison Blues
TTITLE20=Patsy Cline - Walking After Midnight
TTITLE21=The Kingston Trio - Tom Dooley
TTITLE22=Phil Carmen - Borderline Down
TTITLE23=Phil Carmen - Hey Loretta
TTITLE24=Tina Turner - You Ain't Woman Enough To Take My Man
EXTD=
EXTT0=
EXTT1=
EXTT2=
EXTT3=
EXTT4=
EXTT5=
EXTT6=
EXTT7=
EXTT8=
EXTT9=
EXTT10=
EXTT11=
EXTT12=
EXTT13=
EXTT14=
EXTT15=
EXTT16=
EXTT17=
EXTT18=
EXTT19=
EXTT20=
EXTT21=
EXTT22=
EXTT23=
EXTT24=
PLAYORDER=
